<svg width="10" height="11" viewBox="0 0 10 11" fill="none" xmlns="http://www.w3.org/2000/svg">
<path d="M7.22656 2.86719L6.40625 3.6875C6.11328 3.98047 6.32812 4.46875 6.73828 4.46875H9.375C9.62891 4.46875 9.84375 4.27344 9.84375 4V1.38281C9.84375 0.972656 9.33594 0.757812 9.04297 1.05078L8.33984 1.75391C7.46094 0.933594 6.28906 0.40625 5 0.40625C2.61719 0.40625 0.644531 2.10547 0.234375 4.35156C0.195312 4.50781 0.3125 4.625 0.46875 4.625H1.58203C1.67969 4.625 1.77734 4.56641 1.81641 4.44922C2.16797 3.02344 3.47656 1.98828 4.98047 1.96875C5.82031 1.96875 6.62109 2.30078 7.22656 2.86719ZM0.625 6.03125C0.351562 6.03125 0.15625 6.24609 0.15625 6.5V9.13672C0.15625 9.54688 0.644531 9.76172 0.9375 9.46875L1.64062 8.76562C2.51953 9.58594 3.69141 10.0938 5 10.0938C7.36328 10.0938 9.33594 8.41406 9.74609 6.16797C9.78516 6.01172 9.66797 5.89453 9.51172 5.89453H8.39844C8.30078 5.89453 8.20312 5.95312 8.16406 6.07031C7.8125 7.49609 6.50391 8.53125 5 8.55078C4.16016 8.55078 3.35938 8.21875 2.75391 7.65234L3.57422 6.83203C3.86719 6.53906 3.65234 6.03125 3.24219 6.03125H0.625Z" fill="white"/>
</svg>
